# xmcd
#
# Track frame offsets:
#	150
#	17326
#	37336
#	52614
#	68253
#	80131
#	96163
#	113287
#
# Disc length: 1687 seconds
# Revision: 0
# Processed by: cddbd v1.5.2PL0 Copyright (c) Steve Scherf et al.
# Submitted via: dBpowerAMP V12.0
#
DISCID=51069508
DTITLE=Charlotte Gainsbourg - Unreleased
DYEAR=2011
DGENRE=Alternative
TTITLE0=Terrible Angels
TTITLE1=Paradisco
TTITLE2=All The Rain
TTITLE3=White Telephone
TTITLE4=Anna
TTITLE5=Got To Let Go
TTITLE6=Out Of Touch
TTITLE7=Memoir
EXTD=
EXTT0=
EXTT1=
EXTT2=
EXTT3=
EXTT4=
EXTT5=
EXTT6=
EXTT7=
PLAYORDER=
